<mxfile host="app.diagrams.net" modified="2022-10-23T04:46:42.091Z" agent="5.0 (Windows NT 10.0; Win64; x64) AppleWebKit/537.36 (KHTML, like Gecko) Chrome/106.0.0.0 Safari/537.36" etag="On66DxWVXTH3dQ6ayBTI" version="20.4.2" type="github">
  <diagram id="C5RBs43oDa-KdzZeNtuy" name="Page-1">
    <mxGraphModel dx="2525" dy="1696" grid="1" gridSize="10" guides="1" tooltips="1" connect="1" arrows="1" fold="1" page="1" pageScale="1" pageWidth="827" pageHeight="1169" math="0" shadow="0">
      <root>
        <mxCell id="WIyWlLk6GJQsqaUBKTNV-0" />
        <mxCell id="WIyWlLk6GJQsqaUBKTNV-1" parent="WIyWlLk6GJQsqaUBKTNV-0" />
        <mxCell id="C-iBWe6EF-HlVLcRRVlP-46" value="Proyecto" style="swimlane;fontStyle=2;align=center;verticalAlign=top;childLayout=stackLayout;horizontal=1;startSize=26;horizontalStack=0;resizeParent=1;resizeLast=0;collapsible=1;marginBottom=0;rounded=0;shadow=0;strokeWidth=1;" parent="WIyWlLk6GJQsqaUBKTNV-1" vertex="1">
          <mxGeometry x="-440" y="110" width="210" height="220" as="geometry">
            <mxRectangle x="230" y="140" width="160" height="26" as="alternateBounds" />
          </mxGeometry>
        </mxCell>
        <mxCell id="C-iBWe6EF-HlVLcRRVlP-47" value="- titulo: String;&#xa;- descripcion: String;" style="text;align=left;verticalAlign=top;spacingLeft=4;spacingRight=4;overflow=hidden;rotatable=0;points=[[0,0.5],[1,0.5]];portConstraint=eastwest;" parent="C-iBWe6EF-HlVLcRRVlP-46" vertex="1">
          <mxGeometry y="26" width="210" height="54" as="geometry" />
        </mxCell>
        <mxCell id="C-iBWe6EF-HlVLcRRVlP-49" value="" style="line;html=1;strokeWidth=1;align=left;verticalAlign=middle;spacingTop=-1;spacingLeft=3;spacingRight=3;rotatable=0;labelPosition=right;points=[];portConstraint=eastwest;" parent="C-iBWe6EF-HlVLcRRVlP-46" vertex="1">
          <mxGeometry y="80" width="210" height="8" as="geometry" />
        </mxCell>
        <mxCell id="C-iBWe6EF-HlVLcRRVlP-50" value="+ getTitulo(): String;&#xa;+ getDescripcion(): String;&#xa;+ getCategorias(): List&lt;String&gt;;&#xa;+ addUsuario(): void;&#xa;+ getMuestras(): List&lt;Muestra&gt;;&#xa;+ addMuestra(): void;" style="text;align=left;verticalAlign=top;spacingLeft=4;spacingRight=4;overflow=hidden;rotatable=0;points=[[0,0.5],[1,0.5]];portConstraint=eastwest;" parent="C-iBWe6EF-HlVLcRRVlP-46" vertex="1">
          <mxGeometry y="88" width="210" height="104" as="geometry" />
        </mxCell>
        <mxCell id="C-iBWe6EF-HlVLcRRVlP-51" value="Muestra" style="swimlane;fontStyle=2;align=center;verticalAlign=top;childLayout=stackLayout;horizontal=1;startSize=26;horizontalStack=0;resizeParent=1;resizeLast=0;collapsible=1;marginBottom=0;rounded=0;shadow=0;strokeWidth=1;" parent="WIyWlLk6GJQsqaUBKTNV-1" vertex="1">
          <mxGeometry x="130" y="120" width="210" height="196" as="geometry">
            <mxRectangle x="230" y="140" width="160" height="26" as="alternateBounds" />
          </mxGeometry>
        </mxCell>
        <mxCell id="C-iBWe6EF-HlVLcRRVlP-53" value="- fecha: date;&#xa;- hora: double;" style="text;align=left;verticalAlign=top;spacingLeft=4;spacingRight=4;overflow=hidden;rotatable=0;points=[[0,0.5],[1,0.5]];portConstraint=eastwest;rounded=0;shadow=0;html=0;" parent="C-iBWe6EF-HlVLcRRVlP-51" vertex="1">
          <mxGeometry y="26" width="210" height="58" as="geometry" />
        </mxCell>
        <mxCell id="C-iBWe6EF-HlVLcRRVlP-54" value="" style="line;html=1;strokeWidth=1;align=left;verticalAlign=middle;spacingTop=-1;spacingLeft=3;spacingRight=3;rotatable=0;labelPosition=right;points=[];portConstraint=eastwest;" parent="C-iBWe6EF-HlVLcRRVlP-51" vertex="1">
          <mxGeometry y="84" width="210" height="8" as="geometry" />
        </mxCell>
        <mxCell id="C-iBWe6EF-HlVLcRRVlP-55" value="+" style="text;align=left;verticalAlign=top;spacingLeft=4;spacingRight=4;overflow=hidden;rotatable=0;points=[[0,0.5],[1,0.5]];portConstraint=eastwest;" parent="C-iBWe6EF-HlVLcRRVlP-51" vertex="1">
          <mxGeometry y="92" width="210" height="104" as="geometry" />
        </mxCell>
        <mxCell id="C-iBWe6EF-HlVLcRRVlP-56" value="Usuario" style="swimlane;fontStyle=2;align=center;verticalAlign=top;childLayout=stackLayout;horizontal=1;startSize=26;horizontalStack=0;resizeParent=1;resizeLast=0;collapsible=1;marginBottom=0;rounded=0;shadow=0;strokeWidth=1;" parent="WIyWlLk6GJQsqaUBKTNV-1" vertex="1">
          <mxGeometry x="-490" y="470" width="270" height="240" as="geometry">
            <mxRectangle x="230" y="140" width="160" height="26" as="alternateBounds" />
          </mxGeometry>
        </mxCell>
        <mxCell id="C-iBWe6EF-HlVLcRRVlP-57" value="- cantidadMuestras:int&#xa;- dificultad: int;&#xa;- recompensa: int;" style="text;align=left;verticalAlign=top;spacingLeft=4;spacingRight=4;overflow=hidden;rotatable=0;points=[[0,0.5],[1,0.5]];portConstraint=eastwest;" parent="C-iBWe6EF-HlVLcRRVlP-56" vertex="1">
          <mxGeometry y="26" width="270" height="64" as="geometry" />
        </mxCell>
        <mxCell id="C-iBWe6EF-HlVLcRRVlP-58" value="" style="line;html=1;strokeWidth=1;align=left;verticalAlign=middle;spacingTop=-1;spacingLeft=3;spacingRight=3;rotatable=0;labelPosition=right;points=[];portConstraint=eastwest;" parent="C-iBWe6EF-HlVLcRRVlP-56" vertex="1">
          <mxGeometry y="90" width="270" height="8" as="geometry" />
        </mxCell>
        <mxCell id="C-iBWe6EF-HlVLcRRVlP-59" value="+ addMuestra(): void;&#xa;+ addProyecto(): void;&#xa;+ getDesafiosCompletados(): List&lt;Desafio&gt;;&#xa;+ getPorcentajeCompletitudUsuario(): double;&#xa;+ estaCompletoDesafio(Desafio): ;&#xa;+ calificar(Desafio): void;&#xa;+ getPreferidos(List&lt;Desafio&gt;) : List&lt;Desafio&gt;;" style="text;align=left;verticalAlign=top;spacingLeft=4;spacingRight=4;overflow=hidden;rotatable=0;points=[[0,0.5],[1,0.5]];portConstraint=eastwest;" parent="C-iBWe6EF-HlVLcRRVlP-56" vertex="1">
          <mxGeometry y="98" width="270" height="142" as="geometry" />
        </mxCell>
        <mxCell id="C-iBWe6EF-HlVLcRRVlP-60" value="Desafio" style="swimlane;fontStyle=2;align=center;verticalAlign=top;childLayout=stackLayout;horizontal=1;startSize=26;horizontalStack=0;resizeParent=1;resizeLast=0;collapsible=1;marginBottom=0;rounded=0;shadow=0;strokeWidth=1;" parent="WIyWlLk6GJQsqaUBKTNV-1" vertex="1">
          <mxGeometry y="869.96" width="210" height="200" as="geometry">
            <mxRectangle x="230" y="140" width="160" height="26" as="alternateBounds" />
          </mxGeometry>
        </mxCell>
        <mxCell id="C-iBWe6EF-HlVLcRRVlP-61" value="- cantidadMuestras: int;&#xa;- dificultad: int;&#xa;- recompensa: int;" style="text;align=left;verticalAlign=top;spacingLeft=4;spacingRight=4;overflow=hidden;rotatable=0;points=[[0,0.5],[1,0.5]];portConstraint=eastwest;" parent="C-iBWe6EF-HlVLcRRVlP-60" vertex="1">
          <mxGeometry y="26" width="210" height="114" as="geometry" />
        </mxCell>
        <mxCell id="C-iBWe6EF-HlVLcRRVlP-62" value="" style="line;html=1;strokeWidth=1;align=left;verticalAlign=middle;spacingTop=-1;spacingLeft=3;spacingRight=3;rotatable=0;labelPosition=right;points=[];portConstraint=eastwest;" parent="C-iBWe6EF-HlVLcRRVlP-60" vertex="1">
          <mxGeometry y="140" width="210" height="8" as="geometry" />
        </mxCell>
        <mxCell id="C-iBWe6EF-HlVLcRRVlP-63" value="+ verificarMuestra(Muestra);" style="text;align=left;verticalAlign=top;spacingLeft=4;spacingRight=4;overflow=hidden;rotatable=0;points=[[0,0.5],[1,0.5]];portConstraint=eastwest;" parent="C-iBWe6EF-HlVLcRRVlP-60" vertex="1">
          <mxGeometry y="148" width="210" height="32" as="geometry" />
        </mxCell>
        <mxCell id="C-iBWe6EF-HlVLcRRVlP-64" value="" style="endArrow=open;shadow=0;strokeWidth=1;rounded=0;endFill=1;edgeStyle=elbowEdgeStyle;elbow=vertical;" parent="WIyWlLk6GJQsqaUBKTNV-1" edge="1">
          <mxGeometry x="0.5" y="41" relative="1" as="geometry">
            <mxPoint x="-422" y="330" as="sourcePoint" />
            <mxPoint x="-422" y="460" as="targetPoint" />
            <mxPoint x="-40" y="32" as="offset" />
            <Array as="points">
              <mxPoint x="-420" y="430" />
              <mxPoint x="-420" y="410" />
              <mxPoint x="-420" y="350" />
              <mxPoint x="-422" y="380" />
            </Array>
          </mxGeometry>
        </mxCell>
        <mxCell id="C-iBWe6EF-HlVLcRRVlP-65" value="1" style="resizable=0;align=left;verticalAlign=bottom;labelBackgroundColor=none;fontSize=12;" parent="C-iBWe6EF-HlVLcRRVlP-64" connectable="0" vertex="1">
          <mxGeometry x="-1" relative="1" as="geometry">
            <mxPoint y="20" as="offset" />
          </mxGeometry>
        </mxCell>
        <mxCell id="C-iBWe6EF-HlVLcRRVlP-66" value="*" style="resizable=0;align=right;verticalAlign=bottom;labelBackgroundColor=none;fontSize=12;" parent="C-iBWe6EF-HlVLcRRVlP-64" connectable="0" vertex="1">
          <mxGeometry x="1" relative="1" as="geometry">
            <mxPoint x="-7" y="4" as="offset" />
          </mxGeometry>
        </mxCell>
        <mxCell id="C-iBWe6EF-HlVLcRRVlP-67" value="" style="endArrow=open;shadow=0;strokeWidth=1;rounded=0;endFill=1;edgeStyle=elbowEdgeStyle;elbow=vertical;exitX=0.561;exitY=-0.013;exitDx=0;exitDy=0;exitPerimeter=0;entryX=0.5;entryY=1;entryDx=0;entryDy=0;" parent="WIyWlLk6GJQsqaUBKTNV-1" source="C-iBWe6EF-HlVLcRRVlP-56" target="C-iBWe6EF-HlVLcRRVlP-46" edge="1">
          <mxGeometry x="0.5" y="41" relative="1" as="geometry">
            <mxPoint x="-310" y="459.0000000000002" as="sourcePoint" />
            <mxPoint x="-310" y="329.9999999999998" as="targetPoint" />
            <mxPoint x="-40" y="32" as="offset" />
            <Array as="points" />
          </mxGeometry>
        </mxCell>
        <mxCell id="C-iBWe6EF-HlVLcRRVlP-69" value="*" style="resizable=0;align=right;verticalAlign=bottom;labelBackgroundColor=none;fontSize=12;" parent="C-iBWe6EF-HlVLcRRVlP-67" connectable="0" vertex="1">
          <mxGeometry x="1" relative="1" as="geometry">
            <mxPoint x="20" y="30" as="offset" />
          </mxGeometry>
        </mxCell>
        <mxCell id="C-iBWe6EF-HlVLcRRVlP-70" value="usuarios" style="text;html=1;align=center;verticalAlign=middle;resizable=0;points=[];autosize=1;strokeColor=none;fillColor=none;" parent="WIyWlLk6GJQsqaUBKTNV-1" vertex="1">
          <mxGeometry x="-510" y="360" width="70" height="30" as="geometry" />
        </mxCell>
        <mxCell id="C-iBWe6EF-HlVLcRRVlP-71" value="proyectos" style="text;html=1;align=center;verticalAlign=middle;resizable=0;points=[];autosize=1;strokeColor=none;fillColor=none;" parent="WIyWlLk6GJQsqaUBKTNV-1" vertex="1">
          <mxGeometry x="-320" y="425" width="80" height="30" as="geometry" />
        </mxCell>
        <mxCell id="C-iBWe6EF-HlVLcRRVlP-72" value="" style="endArrow=open;shadow=0;strokeWidth=1;rounded=0;endFill=1;edgeStyle=elbowEdgeStyle;elbow=vertical;exitX=1.006;exitY=0.141;exitDx=0;exitDy=0;exitPerimeter=0;entryX=-0.014;entryY=0.034;entryDx=0;entryDy=0;entryPerimeter=0;" parent="WIyWlLk6GJQsqaUBKTNV-1" source="C-iBWe6EF-HlVLcRRVlP-47" target="C-iBWe6EF-HlVLcRRVlP-53" edge="1">
          <mxGeometry x="0.5" y="41" relative="1" as="geometry">
            <mxPoint x="-210" y="140.00000000000023" as="sourcePoint" />
            <mxPoint x="120" y="140.00000000000023" as="targetPoint" />
            <mxPoint x="-40" y="32" as="offset" />
          </mxGeometry>
        </mxCell>
        <mxCell id="C-iBWe6EF-HlVLcRRVlP-73" value="1" style="resizable=0;align=left;verticalAlign=bottom;labelBackgroundColor=none;fontSize=12;" parent="C-iBWe6EF-HlVLcRRVlP-72" connectable="0" vertex="1">
          <mxGeometry x="-1" relative="1" as="geometry">
            <mxPoint y="20" as="offset" />
          </mxGeometry>
        </mxCell>
        <mxCell id="C-iBWe6EF-HlVLcRRVlP-75" value="*" style="text;html=1;align=center;verticalAlign=middle;resizable=0;points=[];autosize=1;strokeColor=none;fillColor=none;" parent="WIyWlLk6GJQsqaUBKTNV-1" vertex="1">
          <mxGeometry x="85" y="135" width="30" height="30" as="geometry" />
        </mxCell>
        <mxCell id="C-iBWe6EF-HlVLcRRVlP-76" value="" style="endArrow=open;shadow=0;strokeWidth=1;rounded=0;endFill=1;edgeStyle=elbowEdgeStyle;elbow=vertical;exitX=0;exitY=1;exitDx=0;exitDy=0;entryX=1.005;entryY=0.259;entryDx=0;entryDy=0;entryPerimeter=0;" parent="WIyWlLk6GJQsqaUBKTNV-1" source="C-iBWe6EF-HlVLcRRVlP-51" target="C-iBWe6EF-HlVLcRRVlP-57" edge="1">
          <mxGeometry x="0.5" y="41" relative="1" as="geometry">
            <mxPoint x="130" y="359.9999999999998" as="sourcePoint" />
            <mxPoint x="-210" y="510" as="targetPoint" />
            <mxPoint x="-40" y="32" as="offset" />
            <Array as="points">
              <mxPoint x="126" y="510" />
            </Array>
          </mxGeometry>
        </mxCell>
        <mxCell id="C-iBWe6EF-HlVLcRRVlP-77" value="1" style="resizable=0;align=left;verticalAlign=bottom;labelBackgroundColor=none;fontSize=12;" parent="C-iBWe6EF-HlVLcRRVlP-76" connectable="0" vertex="1">
          <mxGeometry x="-1" relative="1" as="geometry">
            <mxPoint x="-315" y="181" as="offset" />
          </mxGeometry>
        </mxCell>
        <mxCell id="C-iBWe6EF-HlVLcRRVlP-79" value="Coordenada" style="swimlane;fontStyle=2;align=center;verticalAlign=top;childLayout=stackLayout;horizontal=1;startSize=26;horizontalStack=0;resizeParent=1;resizeLast=0;collapsible=1;marginBottom=0;rounded=0;shadow=0;strokeWidth=1;" parent="WIyWlLk6GJQsqaUBKTNV-1" vertex="1">
          <mxGeometry x="460" y="505" width="210" height="160" as="geometry">
            <mxRectangle x="230" y="140" width="160" height="26" as="alternateBounds" />
          </mxGeometry>
        </mxCell>
        <mxCell id="C-iBWe6EF-HlVLcRRVlP-80" value="-latitud: int;&#xa;-longitud: int;" style="text;align=left;verticalAlign=top;spacingLeft=4;spacingRight=4;overflow=hidden;rotatable=0;points=[[0,0.5],[1,0.5]];portConstraint=eastwest;" parent="C-iBWe6EF-HlVLcRRVlP-79" vertex="1">
          <mxGeometry y="26" width="210" height="64" as="geometry" />
        </mxCell>
        <mxCell id="C-iBWe6EF-HlVLcRRVlP-81" value="" style="line;html=1;strokeWidth=1;align=left;verticalAlign=middle;spacingTop=-1;spacingLeft=3;spacingRight=3;rotatable=0;labelPosition=right;points=[];portConstraint=eastwest;" parent="C-iBWe6EF-HlVLcRRVlP-79" vertex="1">
          <mxGeometry y="90" width="210" height="8" as="geometry" />
        </mxCell>
        <mxCell id="C-iBWe6EF-HlVLcRRVlP-82" value="+ getLatitud(): int;&#xa;+ getLongitud(): int;" style="text;align=left;verticalAlign=top;spacingLeft=4;spacingRight=4;overflow=hidden;rotatable=0;points=[[0,0.5],[1,0.5]];portConstraint=eastwest;" parent="C-iBWe6EF-HlVLcRRVlP-79" vertex="1">
          <mxGeometry y="98" width="210" height="52" as="geometry" />
        </mxCell>
        <mxCell id="C-iBWe6EF-HlVLcRRVlP-83" value="" style="endArrow=open;shadow=0;strokeWidth=1;rounded=0;endFill=1;edgeStyle=elbowEdgeStyle;elbow=vertical;" parent="WIyWlLk6GJQsqaUBKTNV-1" edge="1">
          <mxGeometry x="0.5" y="41" relative="1" as="geometry">
            <mxPoint x="330" y="330" as="sourcePoint" />
            <mxPoint x="460" y="510" as="targetPoint" />
            <mxPoint x="-40" y="32" as="offset" />
            <Array as="points">
              <mxPoint x="334" y="510" />
            </Array>
          </mxGeometry>
        </mxCell>
        <mxCell id="C-iBWe6EF-HlVLcRRVlP-84" value="1" style="resizable=0;align=left;verticalAlign=bottom;labelBackgroundColor=none;fontSize=12;" parent="C-iBWe6EF-HlVLcRRVlP-83" connectable="0" vertex="1">
          <mxGeometry x="-1" relative="1" as="geometry">
            <mxPoint y="20" as="offset" />
          </mxGeometry>
        </mxCell>
        <mxCell id="C-iBWe6EF-HlVLcRRVlP-85" value="1" style="resizable=0;align=right;verticalAlign=bottom;labelBackgroundColor=none;fontSize=12;" parent="C-iBWe6EF-HlVLcRRVlP-83" connectable="0" vertex="1">
          <mxGeometry x="1" relative="1" as="geometry">
            <mxPoint x="-10" as="offset" />
          </mxGeometry>
        </mxCell>
        <mxCell id="C-iBWe6EF-HlVLcRRVlP-90" value="DesafioAceptado" style="swimlane;fontStyle=2;align=center;verticalAlign=top;childLayout=stackLayout;horizontal=1;startSize=26;horizontalStack=0;resizeParent=1;resizeLast=0;collapsible=1;marginBottom=0;rounded=0;shadow=0;strokeWidth=1;" parent="WIyWlLk6GJQsqaUBKTNV-1" vertex="1">
          <mxGeometry x="-330" y="920" width="210" height="150" as="geometry">
            <mxRectangle x="230" y="140" width="160" height="26" as="alternateBounds" />
          </mxGeometry>
        </mxCell>
        <mxCell id="C-iBWe6EF-HlVLcRRVlP-91" value="- estaCompletado: Boolean;&#xa;- porcentajeCompletitud: double;&#xa;- calificacion: int;&#xa;- fechaSuperacion: date;" style="text;align=left;verticalAlign=top;spacingLeft=4;spacingRight=4;overflow=hidden;rotatable=0;points=[[0,0.5],[1,0.5]];portConstraint=eastwest;" parent="C-iBWe6EF-HlVLcRRVlP-90" vertex="1">
          <mxGeometry y="26" width="210" height="64" as="geometry" />
        </mxCell>
        <mxCell id="C-iBWe6EF-HlVLcRRVlP-92" value="" style="line;html=1;strokeWidth=1;align=left;verticalAlign=middle;spacingTop=-1;spacingLeft=3;spacingRight=3;rotatable=0;labelPosition=right;points=[];portConstraint=eastwest;" parent="C-iBWe6EF-HlVLcRRVlP-90" vertex="1">
          <mxGeometry y="90" width="210" height="8" as="geometry" />
        </mxCell>
        <mxCell id="C-iBWe6EF-HlVLcRRVlP-93" value="+ getMomentoSuperacion(): date;" style="text;align=left;verticalAlign=top;spacingLeft=4;spacingRight=4;overflow=hidden;rotatable=0;points=[[0,0.5],[1,0.5]];portConstraint=eastwest;" parent="C-iBWe6EF-HlVLcRRVlP-90" vertex="1">
          <mxGeometry y="98" width="210" height="42" as="geometry" />
        </mxCell>
        <mxCell id="C-iBWe6EF-HlVLcRRVlP-95" value="" style="endArrow=open;endFill=1;endSize=12;html=1;rounded=0;entryX=-0.02;entryY=0.859;entryDx=0;entryDy=0;entryPerimeter=0;exitX=0.167;exitY=0.333;exitDx=0;exitDy=0;exitPerimeter=0;" parent="WIyWlLk6GJQsqaUBKTNV-1" source="C-iBWe6EF-HlVLcRRVlP-98" target="C-iBWe6EF-HlVLcRRVlP-91" edge="1">
          <mxGeometry width="160" relative="1" as="geometry">
            <mxPoint x="-420" y="690" as="sourcePoint" />
            <mxPoint x="-340" y="840" as="targetPoint" />
            <Array as="points">
              <mxPoint x="-420" y="970" />
              <mxPoint x="-420" y="1001" />
            </Array>
          </mxGeometry>
        </mxCell>
        <mxCell id="C-iBWe6EF-HlVLcRRVlP-97" value="*" style="text;html=1;align=center;verticalAlign=middle;resizable=0;points=[];autosize=1;strokeColor=none;fillColor=none;" parent="WIyWlLk6GJQsqaUBKTNV-1" vertex="1">
          <mxGeometry x="-385" y="944.96" width="30" height="30" as="geometry" />
        </mxCell>
        <mxCell id="C-iBWe6EF-HlVLcRRVlP-98" value="1" style="text;html=1;align=center;verticalAlign=middle;resizable=0;points=[];autosize=1;strokeColor=none;fillColor=none;" parent="WIyWlLk6GJQsqaUBKTNV-1" vertex="1">
          <mxGeometry x="-425" y="710" width="30" height="30" as="geometry" />
        </mxCell>
        <mxCell id="C-iBWe6EF-HlVLcRRVlP-99" value="DesafiosAceptados" style="text;html=1;align=center;verticalAlign=middle;resizable=0;points=[];autosize=1;strokeColor=none;fillColor=none;rotation=90;flipV=0;" parent="WIyWlLk6GJQsqaUBKTNV-1" vertex="1">
          <mxGeometry x="-475" y="879.96" width="130" height="30" as="geometry" />
        </mxCell>
        <mxCell id="VIOPXuwNk6nI36FWdONZ-0" value="" style="endArrow=open;endFill=1;endSize=12;html=1;rounded=0;" parent="WIyWlLk6GJQsqaUBKTNV-1" edge="1">
          <mxGeometry width="160" relative="1" as="geometry">
            <mxPoint x="-120" y="969.96" as="sourcePoint" />
            <mxPoint y="969.96" as="targetPoint" />
          </mxGeometry>
        </mxCell>
        <mxCell id="VIOPXuwNk6nI36FWdONZ-1" value="1" style="text;html=1;align=center;verticalAlign=middle;resizable=0;points=[];autosize=1;strokeColor=none;fillColor=none;" parent="WIyWlLk6GJQsqaUBKTNV-1" vertex="1">
          <mxGeometry x="-45" y="944.96" width="30" height="30" as="geometry" />
        </mxCell>
        <mxCell id="VIOPXuwNk6nI36FWdONZ-2" value="1" style="text;html=1;align=center;verticalAlign=middle;resizable=0;points=[];autosize=1;strokeColor=none;fillColor=none;" parent="WIyWlLk6GJQsqaUBKTNV-1" vertex="1">
          <mxGeometry x="-125" y="944.96" width="30" height="30" as="geometry" />
        </mxCell>
        <mxCell id="brn7q9q9NZogk5MjZYks-1" value="1" style="resizable=0;align=left;verticalAlign=bottom;labelBackgroundColor=none;fontSize=12;" parent="WIyWlLk6GJQsqaUBKTNV-1" connectable="0" vertex="1">
          <mxGeometry x="115.00000000000023" y="375" as="geometry" />
        </mxCell>
        <mxCell id="brn7q9q9NZogk5MjZYks-2" value="" style="endArrow=open;shadow=0;strokeWidth=1;rounded=0;endFill=1;edgeStyle=elbowEdgeStyle;elbow=vertical;" parent="WIyWlLk6GJQsqaUBKTNV-1" edge="1">
          <mxGeometry x="0.5" y="41" relative="1" as="geometry">
            <mxPoint x="-220" y="600" as="sourcePoint" />
            <mxPoint x="190" y="330" as="targetPoint" />
            <mxPoint x="-40" y="32" as="offset" />
            <Array as="points">
              <mxPoint x="190" y="600" />
            </Array>
          </mxGeometry>
        </mxCell>
        <mxCell id="brn7q9q9NZogk5MjZYks-4" value="1" style="text;html=1;align=center;verticalAlign=middle;resizable=0;points=[];autosize=1;strokeColor=none;fillColor=none;" parent="WIyWlLk6GJQsqaUBKTNV-1" vertex="1">
          <mxGeometry x="-220" y="570" width="30" height="30" as="geometry" />
        </mxCell>
        <mxCell id="brn7q9q9NZogk5MjZYks-5" value="*" style="text;html=1;align=center;verticalAlign=middle;resizable=0;points=[];autosize=1;strokeColor=none;fillColor=none;" parent="WIyWlLk6GJQsqaUBKTNV-1" vertex="1">
          <mxGeometry x="180" y="375" width="30" height="30" as="geometry" />
        </mxCell>
        <mxCell id="brn7q9q9NZogk5MjZYks-6" value="muestras" style="text;html=1;align=center;verticalAlign=middle;resizable=0;points=[];autosize=1;strokeColor=none;fillColor=none;" parent="WIyWlLk6GJQsqaUBKTNV-1" vertex="1">
          <mxGeometry x="-205" y="575" width="70" height="30" as="geometry" />
        </mxCell>
        <mxCell id="brn7q9q9NZogk5MjZYks-7" value="usuario" style="text;html=1;align=center;verticalAlign=middle;resizable=0;points=[];autosize=1;strokeColor=none;fillColor=none;" parent="WIyWlLk6GJQsqaUBKTNV-1" vertex="1">
          <mxGeometry x="60" y="485" width="60" height="30" as="geometry" />
        </mxCell>
        <mxCell id="brn7q9q9NZogk5MjZYks-8" value="muestras" style="text;html=1;align=center;verticalAlign=middle;resizable=0;points=[];autosize=1;strokeColor=none;fillColor=none;" parent="WIyWlLk6GJQsqaUBKTNV-1" vertex="1">
          <mxGeometry x="-220" y="110" width="70" height="30" as="geometry" />
        </mxCell>
        <mxCell id="brn7q9q9NZogk5MjZYks-9" value="coordenada" style="text;html=1;align=center;verticalAlign=middle;resizable=0;points=[];autosize=1;strokeColor=none;fillColor=none;" parent="WIyWlLk6GJQsqaUBKTNV-1" vertex="1">
          <mxGeometry x="320" y="485" width="90" height="30" as="geometry" />
        </mxCell>
        <mxCell id="brn7q9q9NZogk5MjZYks-11" value="desafio" style="text;html=1;align=center;verticalAlign=middle;resizable=0;points=[];autosize=1;strokeColor=none;fillColor=none;" parent="WIyWlLk6GJQsqaUBKTNV-1" vertex="1">
          <mxGeometry x="-125" y="969.96" width="60" height="30" as="geometry" />
        </mxCell>
        <mxCell id="brn7q9q9NZogk5MjZYks-13" value="Area" style="swimlane;fontStyle=1;align=center;verticalAlign=top;childLayout=stackLayout;horizontal=1;startSize=26;horizontalStack=0;resizeParent=1;resizeParentMax=0;resizeLast=0;collapsible=1;marginBottom=0;" parent="WIyWlLk6GJQsqaUBKTNV-1" vertex="1">
          <mxGeometry x="370" y="888.96" width="160" height="86" as="geometry" />
        </mxCell>
        <mxCell id="brn7q9q9NZogk5MjZYks-14" value="- radio: int;" style="text;strokeColor=none;fillColor=none;align=left;verticalAlign=top;spacingLeft=4;spacingRight=4;overflow=hidden;rotatable=0;points=[[0,0.5],[1,0.5]];portConstraint=eastwest;" parent="brn7q9q9NZogk5MjZYks-13" vertex="1">
          <mxGeometry y="26" width="160" height="26" as="geometry" />
        </mxCell>
        <mxCell id="brn7q9q9NZogk5MjZYks-15" value="" style="line;strokeWidth=1;fillColor=none;align=left;verticalAlign=middle;spacingTop=-1;spacingLeft=3;spacingRight=3;rotatable=0;labelPosition=right;points=[];portConstraint=eastwest;strokeColor=inherit;" parent="brn7q9q9NZogk5MjZYks-13" vertex="1">
          <mxGeometry y="52" width="160" height="8" as="geometry" />
        </mxCell>
        <mxCell id="brn7q9q9NZogk5MjZYks-16" value="+ obtenerArea(): int;" style="text;strokeColor=none;fillColor=none;align=left;verticalAlign=top;spacingLeft=4;spacingRight=4;overflow=hidden;rotatable=0;points=[[0,0.5],[1,0.5]];portConstraint=eastwest;" parent="brn7q9q9NZogk5MjZYks-13" vertex="1">
          <mxGeometry y="60" width="160" height="26" as="geometry" />
        </mxCell>
        <mxCell id="brn7q9q9NZogk5MjZYks-18" value="" style="endArrow=open;endFill=1;endSize=12;html=1;rounded=0;entryX=0.25;entryY=1;entryDx=0;entryDy=0;" parent="WIyWlLk6GJQsqaUBKTNV-1" target="C-iBWe6EF-HlVLcRRVlP-79" edge="1">
          <mxGeometry width="160" relative="1" as="geometry">
            <mxPoint x="513" y="880" as="sourcePoint" />
            <mxPoint x="520" y="757.5" as="targetPoint" />
            <Array as="points">
              <mxPoint x="513" y="760" />
            </Array>
          </mxGeometry>
        </mxCell>
        <mxCell id="brn7q9q9NZogk5MjZYks-21" value="1" style="text;html=1;align=center;verticalAlign=middle;resizable=0;points=[];autosize=1;strokeColor=none;fillColor=none;" parent="WIyWlLk6GJQsqaUBKTNV-1" vertex="1">
          <mxGeometry x="475" y="858.96" width="30" height="30" as="geometry" />
        </mxCell>
        <mxCell id="brn7q9q9NZogk5MjZYks-22" value="1" style="text;html=1;align=center;verticalAlign=middle;resizable=0;points=[];autosize=1;strokeColor=none;fillColor=none;" parent="WIyWlLk6GJQsqaUBKTNV-1" vertex="1">
          <mxGeometry x="475" y="665" width="30" height="30" as="geometry" />
        </mxCell>
        <mxCell id="brn7q9q9NZogk5MjZYks-23" value="Centro" style="text;html=1;align=center;verticalAlign=middle;resizable=0;points=[];autosize=1;strokeColor=none;fillColor=none;rotation=270;" parent="WIyWlLk6GJQsqaUBKTNV-1" vertex="1">
          <mxGeometry x="460" y="765" width="60" height="30" as="geometry" />
        </mxCell>
        <mxCell id="brn7q9q9NZogk5MjZYks-25" value="RestriccionFechas" style="swimlane;fontStyle=1;align=center;verticalAlign=top;childLayout=stackLayout;horizontal=1;startSize=26;horizontalStack=0;resizeParent=1;resizeParentMax=0;resizeLast=0;collapsible=1;marginBottom=0;" parent="WIyWlLk6GJQsqaUBKTNV-1" vertex="1">
          <mxGeometry x="-320" y="1380" width="300" height="110" as="geometry" />
        </mxCell>
        <mxCell id="brn7q9q9NZogk5MjZYks-26" value="+ fechaInicio: date;&#xa;+ fechaFin: date;" style="text;strokeColor=none;fillColor=none;align=left;verticalAlign=top;spacingLeft=4;spacingRight=4;overflow=hidden;rotatable=0;points=[[0,0.5],[1,0.5]];portConstraint=eastwest;" parent="brn7q9q9NZogk5MjZYks-25" vertex="1">
          <mxGeometry y="26" width="300" height="44" as="geometry" />
        </mxCell>
        <mxCell id="brn7q9q9NZogk5MjZYks-27" value="" style="line;strokeWidth=1;fillColor=none;align=left;verticalAlign=middle;spacingTop=-1;spacingLeft=3;spacingRight=3;rotatable=0;labelPosition=right;points=[];portConstraint=eastwest;strokeColor=inherit;" parent="brn7q9q9NZogk5MjZYks-25" vertex="1">
          <mxGeometry y="70" width="300" height="8" as="geometry" />
        </mxCell>
        <mxCell id="brn7q9q9NZogk5MjZYks-28" value="+verificar(Desafio) : Boolean ;" style="text;strokeColor=none;fillColor=none;align=left;verticalAlign=top;spacingLeft=4;spacingRight=4;overflow=hidden;rotatable=0;points=[[0,0.5],[1,0.5]];portConstraint=eastwest;" parent="brn7q9q9NZogk5MjZYks-25" vertex="1">
          <mxGeometry y="78" width="300" height="32" as="geometry" />
        </mxCell>
        <mxCell id="brn7q9q9NZogk5MjZYks-36" value="*" style="text;html=1;align=center;verticalAlign=middle;resizable=0;points=[];autosize=1;strokeColor=none;fillColor=none;" parent="WIyWlLk6GJQsqaUBKTNV-1" vertex="1">
          <mxGeometry x="50" y="1120" width="30" height="30" as="geometry" />
        </mxCell>
        <mxCell id="brn7q9q9NZogk5MjZYks-39" value="BuscadorProyectos" style="swimlane;fontStyle=1;align=center;verticalAlign=top;childLayout=stackLayout;horizontal=1;startSize=26;horizontalStack=0;resizeParent=1;resizeParentMax=0;resizeLast=0;collapsible=1;marginBottom=0;" parent="WIyWlLk6GJQsqaUBKTNV-1" vertex="1">
          <mxGeometry x="-900" y="110" width="310" height="140" as="geometry" />
        </mxCell>
        <mxCell id="brn7q9q9NZogk5MjZYks-40" value="-" style="text;strokeColor=none;fillColor=none;align=left;verticalAlign=top;spacingLeft=4;spacingRight=4;overflow=hidden;rotatable=0;points=[[0,0.5],[1,0.5]];portConstraint=eastwest;" parent="brn7q9q9NZogk5MjZYks-39" vertex="1">
          <mxGeometry y="26" width="310" height="26" as="geometry" />
        </mxCell>
        <mxCell id="brn7q9q9NZogk5MjZYks-41" value="" style="line;strokeWidth=1;fillColor=none;align=left;verticalAlign=middle;spacingTop=-1;spacingLeft=3;spacingRight=3;rotatable=0;labelPosition=right;points=[];portConstraint=eastwest;strokeColor=inherit;" parent="brn7q9q9NZogk5MjZYks-39" vertex="1">
          <mxGeometry y="52" width="310" height="8" as="geometry" />
        </mxCell>
        <mxCell id="brn7q9q9NZogk5MjZYks-42" value="+ buscarPorCategorias(List&lt;String&gt;);&#xa;+ excluirPorCategorias(List&lt;String&gt;);&#xa;+ buscarPorTitulo(String);&#xa;+ buscarAvanzado(List&lt;String&gt;, List&lt;String&gt;, String)" style="text;strokeColor=none;fillColor=none;align=left;verticalAlign=top;spacingLeft=4;spacingRight=4;overflow=hidden;rotatable=0;points=[[0,0.5],[1,0.5]];portConstraint=eastwest;" parent="brn7q9q9NZogk5MjZYks-39" vertex="1">
          <mxGeometry y="60" width="310" height="80" as="geometry" />
        </mxCell>
        <mxCell id="brn7q9q9NZogk5MjZYks-43" value="" style="endArrow=open;endFill=1;endSize=12;html=1;rounded=0;entryX=0;entryY=0.333;entryDx=0;entryDy=0;entryPerimeter=0;exitX=1;exitY=0.769;exitDx=0;exitDy=0;exitPerimeter=0;" parent="WIyWlLk6GJQsqaUBKTNV-1" source="brn7q9q9NZogk5MjZYks-40" target="C-iBWe6EF-HlVLcRRVlP-47" edge="1">
          <mxGeometry width="160" relative="1" as="geometry">
            <mxPoint x="-550" y="154" as="sourcePoint" />
            <mxPoint x="-440" y="152.5" as="targetPoint" />
          </mxGeometry>
        </mxCell>
        <mxCell id="brn7q9q9NZogk5MjZYks-44" value="*" style="text;html=1;align=center;verticalAlign=middle;resizable=0;points=[];autosize=1;strokeColor=none;fillColor=none;" parent="WIyWlLk6GJQsqaUBKTNV-1" vertex="1">
          <mxGeometry x="-485" y="125" width="30" height="30" as="geometry" />
        </mxCell>
        <mxCell id="brn7q9q9NZogk5MjZYks-45" value="1" style="text;html=1;align=center;verticalAlign=middle;resizable=0;points=[];autosize=1;strokeColor=none;fillColor=none;" parent="WIyWlLk6GJQsqaUBKTNV-1" vertex="1">
          <mxGeometry x="-590" y="125" width="30" height="30" as="geometry" />
        </mxCell>
        <mxCell id="brn7q9q9NZogk5MjZYks-47" value="proyectos" style="text;html=1;align=center;verticalAlign=middle;resizable=0;points=[];autosize=1;strokeColor=none;fillColor=none;" parent="WIyWlLk6GJQsqaUBKTNV-1" vertex="1">
          <mxGeometry x="-590" y="155" width="80" height="30" as="geometry" />
        </mxCell>
        <mxCell id="_5oM8xuJSvprWKQfW04t-0" value="Favoritos" style="swimlane;fontStyle=1;align=center;verticalAlign=top;childLayout=stackLayout;horizontal=1;startSize=26;horizontalStack=0;resizeParent=1;resizeParentMax=0;resizeLast=0;collapsible=1;marginBottom=0;" parent="WIyWlLk6GJQsqaUBKTNV-1" vertex="1">
          <mxGeometry x="-1070" y="425" width="160" height="86" as="geometry" />
        </mxCell>
        <mxCell id="_5oM8xuJSvprWKQfW04t-1" value="+ field: type" style="text;strokeColor=none;fillColor=none;align=left;verticalAlign=top;spacingLeft=4;spacingRight=4;overflow=hidden;rotatable=0;points=[[0,0.5],[1,0.5]];portConstraint=eastwest;" parent="_5oM8xuJSvprWKQfW04t-0" vertex="1">
          <mxGeometry y="26" width="160" height="26" as="geometry" />
        </mxCell>
        <mxCell id="_5oM8xuJSvprWKQfW04t-2" value="" style="line;strokeWidth=1;fillColor=none;align=left;verticalAlign=middle;spacingTop=-1;spacingLeft=3;spacingRight=3;rotatable=0;labelPosition=right;points=[];portConstraint=eastwest;strokeColor=inherit;" parent="_5oM8xuJSvprWKQfW04t-0" vertex="1">
          <mxGeometry y="52" width="160" height="8" as="geometry" />
        </mxCell>
        <mxCell id="_5oM8xuJSvprWKQfW04t-3" value="+ method(type): type" style="text;strokeColor=none;fillColor=none;align=left;verticalAlign=top;spacingLeft=4;spacingRight=4;overflow=hidden;rotatable=0;points=[[0,0.5],[1,0.5]];portConstraint=eastwest;" parent="_5oM8xuJSvprWKQfW04t-0" vertex="1">
          <mxGeometry y="60" width="160" height="26" as="geometry" />
        </mxCell>
        <mxCell id="_5oM8xuJSvprWKQfW04t-4" value="PrefereciasJuego" style="swimlane;fontStyle=1;align=center;verticalAlign=top;childLayout=stackLayout;horizontal=1;startSize=26;horizontalStack=0;resizeParent=1;resizeParentMax=0;resizeLast=0;collapsible=1;marginBottom=0;" parent="WIyWlLk6GJQsqaUBKTNV-1" vertex="1">
          <mxGeometry x="-1070" y="600" width="160" height="86" as="geometry" />
        </mxCell>
        <mxCell id="_5oM8xuJSvprWKQfW04t-5" value="+ field: type" style="text;strokeColor=none;fillColor=none;align=left;verticalAlign=top;spacingLeft=4;spacingRight=4;overflow=hidden;rotatable=0;points=[[0,0.5],[1,0.5]];portConstraint=eastwest;" parent="_5oM8xuJSvprWKQfW04t-4" vertex="1">
          <mxGeometry y="26" width="160" height="26" as="geometry" />
        </mxCell>
        <mxCell id="_5oM8xuJSvprWKQfW04t-6" value="" style="line;strokeWidth=1;fillColor=none;align=left;verticalAlign=middle;spacingTop=-1;spacingLeft=3;spacingRight=3;rotatable=0;labelPosition=right;points=[];portConstraint=eastwest;strokeColor=inherit;" parent="_5oM8xuJSvprWKQfW04t-4" vertex="1">
          <mxGeometry y="52" width="160" height="8" as="geometry" />
        </mxCell>
        <mxCell id="_5oM8xuJSvprWKQfW04t-7" value="+ method(type): type" style="text;strokeColor=none;fillColor=none;align=left;verticalAlign=top;spacingLeft=4;spacingRight=4;overflow=hidden;rotatable=0;points=[[0,0.5],[1,0.5]];portConstraint=eastwest;" parent="_5oM8xuJSvprWKQfW04t-4" vertex="1">
          <mxGeometry y="60" width="160" height="26" as="geometry" />
        </mxCell>
        <mxCell id="_5oM8xuJSvprWKQfW04t-8" value="TipoRecomendacion" style="swimlane;fontStyle=1;align=center;verticalAlign=top;childLayout=stackLayout;horizontal=1;startSize=26;horizontalStack=0;resizeParent=1;resizeParentMax=0;resizeLast=0;collapsible=1;marginBottom=0;" parent="WIyWlLk6GJQsqaUBKTNV-1" vertex="1">
          <mxGeometry x="-810" y="514" width="160" height="86" as="geometry" />
        </mxCell>
        <mxCell id="_5oM8xuJSvprWKQfW04t-9" value="+ field: type" style="text;strokeColor=none;fillColor=none;align=left;verticalAlign=top;spacingLeft=4;spacingRight=4;overflow=hidden;rotatable=0;points=[[0,0.5],[1,0.5]];portConstraint=eastwest;" parent="_5oM8xuJSvprWKQfW04t-8" vertex="1">
          <mxGeometry y="26" width="160" height="26" as="geometry" />
        </mxCell>
        <mxCell id="_5oM8xuJSvprWKQfW04t-10" value="" style="line;strokeWidth=1;fillColor=none;align=left;verticalAlign=middle;spacingTop=-1;spacingLeft=3;spacingRight=3;rotatable=0;labelPosition=right;points=[];portConstraint=eastwest;strokeColor=inherit;" parent="_5oM8xuJSvprWKQfW04t-8" vertex="1">
          <mxGeometry y="52" width="160" height="8" as="geometry" />
        </mxCell>
        <mxCell id="_5oM8xuJSvprWKQfW04t-11" value="+ method(type): type" style="text;strokeColor=none;fillColor=none;align=left;verticalAlign=top;spacingLeft=4;spacingRight=4;overflow=hidden;rotatable=0;points=[[0,0.5],[1,0.5]];portConstraint=eastwest;" parent="_5oM8xuJSvprWKQfW04t-8" vertex="1">
          <mxGeometry y="60" width="160" height="26" as="geometry" />
        </mxCell>
        <mxCell id="_5oM8xuJSvprWKQfW04t-19" value="" style="endArrow=open;endFill=1;endSize=12;html=1;rounded=0;exitX=-0.015;exitY=1.078;exitDx=0;exitDy=0;exitPerimeter=0;entryX=1.013;entryY=1;entryDx=0;entryDy=0;entryPerimeter=0;" parent="WIyWlLk6GJQsqaUBKTNV-1" source="C-iBWe6EF-HlVLcRRVlP-57" target="_5oM8xuJSvprWKQfW04t-9" edge="1">
          <mxGeometry width="160" relative="1" as="geometry">
            <mxPoint x="-670" y="610" as="sourcePoint" />
            <mxPoint x="-510" y="610" as="targetPoint" />
          </mxGeometry>
        </mxCell>
        <mxCell id="_5oM8xuJSvprWKQfW04t-22" value="Extends" style="endArrow=block;endSize=16;endFill=0;html=1;rounded=0;exitX=1.006;exitY=0.962;exitDx=0;exitDy=0;exitPerimeter=0;entryX=-0.012;entryY=0.14;entryDx=0;entryDy=0;entryPerimeter=0;" parent="WIyWlLk6GJQsqaUBKTNV-1" source="_5oM8xuJSvprWKQfW04t-1" target="_5oM8xuJSvprWKQfW04t-8" edge="1">
          <mxGeometry width="160" relative="1" as="geometry">
            <mxPoint x="-840" y="610" as="sourcePoint" />
            <mxPoint x="-680" y="610" as="targetPoint" />
          </mxGeometry>
        </mxCell>
        <mxCell id="_5oM8xuJSvprWKQfW04t-23" value="Extends" style="endArrow=block;endSize=16;endFill=0;html=1;rounded=0;exitX=1;exitY=0.25;exitDx=0;exitDy=0;entryX=0;entryY=0.5;entryDx=0;entryDy=0;" parent="WIyWlLk6GJQsqaUBKTNV-1" source="_5oM8xuJSvprWKQfW04t-4" target="_5oM8xuJSvprWKQfW04t-11" edge="1">
          <mxGeometry width="160" relative="1" as="geometry">
            <mxPoint x="-840" y="610" as="sourcePoint" />
            <mxPoint x="-680" y="610" as="targetPoint" />
          </mxGeometry>
        </mxCell>
        <mxCell id="_5oM8xuJSvprWKQfW04t-24" value="1" style="text;html=1;align=center;verticalAlign=middle;resizable=0;points=[];autosize=1;strokeColor=none;fillColor=none;" parent="WIyWlLk6GJQsqaUBKTNV-1" vertex="1">
          <mxGeometry x="-515" y="535" width="30" height="30" as="geometry" />
        </mxCell>
        <mxCell id="_5oM8xuJSvprWKQfW04t-27" value="1" style="text;html=1;align=center;verticalAlign=middle;resizable=0;points=[];autosize=1;strokeColor=none;fillColor=none;" parent="WIyWlLk6GJQsqaUBKTNV-1" vertex="1">
          <mxGeometry x="-635" y="540" width="30" height="30" as="geometry" />
        </mxCell>
        <mxCell id="_5oM8xuJSvprWKQfW04t-29" value="preferencia" style="text;html=1;align=center;verticalAlign=middle;resizable=0;points=[];autosize=1;strokeColor=none;fillColor=none;" parent="WIyWlLk6GJQsqaUBKTNV-1" vertex="1">
          <mxGeometry x="-580" y="565" width="80" height="30" as="geometry" />
        </mxCell>
        <mxCell id="_Fq-GKmT_b9NVkXiLpo_-6" value="Categoria" style="swimlane;fontStyle=1;align=center;verticalAlign=top;childLayout=stackLayout;horizontal=1;startSize=26;horizontalStack=0;resizeParent=1;resizeParentMax=0;resizeLast=0;collapsible=1;marginBottom=0;" parent="WIyWlLk6GJQsqaUBKTNV-1" vertex="1">
          <mxGeometry x="-415" y="-120" width="160" height="140" as="geometry" />
        </mxCell>
        <mxCell id="_Fq-GKmT_b9NVkXiLpo_-7" value="-nombre : String&#xa;" style="text;strokeColor=none;fillColor=none;align=left;verticalAlign=top;spacingLeft=4;spacingRight=4;overflow=hidden;rotatable=0;points=[[0,0.5],[1,0.5]];portConstraint=eastwest;" parent="_Fq-GKmT_b9NVkXiLpo_-6" vertex="1">
          <mxGeometry y="26" width="160" height="44" as="geometry" />
        </mxCell>
        <mxCell id="_Fq-GKmT_b9NVkXiLpo_-8" value="" style="line;strokeWidth=1;fillColor=none;align=left;verticalAlign=middle;spacingTop=-1;spacingLeft=3;spacingRight=3;rotatable=0;labelPosition=right;points=[];portConstraint=eastwest;strokeColor=inherit;" parent="_Fq-GKmT_b9NVkXiLpo_-6" vertex="1">
          <mxGeometry y="70" width="160" height="8" as="geometry" />
        </mxCell>
        <mxCell id="_Fq-GKmT_b9NVkXiLpo_-9" value="+ getNombre() : String&#xa;+ setNombre(String): Void" style="text;strokeColor=none;fillColor=none;align=left;verticalAlign=top;spacingLeft=4;spacingRight=4;overflow=hidden;rotatable=0;points=[[0,0.5],[1,0.5]];portConstraint=eastwest;" parent="_Fq-GKmT_b9NVkXiLpo_-6" vertex="1">
          <mxGeometry y="78" width="160" height="62" as="geometry" />
        </mxCell>
        <mxCell id="_Fq-GKmT_b9NVkXiLpo_-10" value="" style="endArrow=open;endFill=1;endSize=12;html=1;rounded=0;exitX=0.5;exitY=0;exitDx=0;exitDy=0;entryX=0.494;entryY=1.065;entryDx=0;entryDy=0;entryPerimeter=0;" parent="WIyWlLk6GJQsqaUBKTNV-1" edge="1" target="_Fq-GKmT_b9NVkXiLpo_-9" source="C-iBWe6EF-HlVLcRRVlP-46">
          <mxGeometry width="160" relative="1" as="geometry">
            <mxPoint x="-385" y="100" as="sourcePoint" />
            <mxPoint x="-225" y="100" as="targetPoint" />
          </mxGeometry>
        </mxCell>
        <mxCell id="_Fq-GKmT_b9NVkXiLpo_-11" value="x" style="text;html=1;align=center;verticalAlign=middle;resizable=0;points=[];autosize=1;strokeColor=none;fillColor=none;" parent="WIyWlLk6GJQsqaUBKTNV-1" vertex="1">
          <mxGeometry x="-365" y="40" width="30" height="30" as="geometry" />
        </mxCell>
        <mxCell id="_Fq-GKmT_b9NVkXiLpo_-12" value="1" style="text;html=1;align=center;verticalAlign=middle;resizable=0;points=[];autosize=1;strokeColor=none;fillColor=none;" parent="WIyWlLk6GJQsqaUBKTNV-1" vertex="1">
          <mxGeometry x="-335" y="80" width="30" height="30" as="geometry" />
        </mxCell>
        <mxCell id="_Fq-GKmT_b9NVkXiLpo_-13" value="categorias" style="text;html=1;align=center;verticalAlign=middle;resizable=0;points=[];autosize=1;strokeColor=none;fillColor=none;" parent="WIyWlLk6GJQsqaUBKTNV-1" vertex="1">
          <mxGeometry x="-413" y="80" width="80" height="30" as="geometry" />
        </mxCell>
        <mxCell id="_Fq-GKmT_b9NVkXiLpo_-22" value="&lt;Restriccion&gt;" style="swimlane;fontStyle=3;align=center;verticalAlign=top;childLayout=stackLayout;horizontal=1;startSize=26;horizontalStack=0;resizeParent=1;resizeParentMax=0;resizeLast=0;collapsible=1;marginBottom=0;" parent="WIyWlLk6GJQsqaUBKTNV-1" vertex="1">
          <mxGeometry x="15" y="1160" width="160" height="86" as="geometry" />
        </mxCell>
        <mxCell id="_Fq-GKmT_b9NVkXiLpo_-23" value="-" style="text;strokeColor=none;fillColor=none;align=left;verticalAlign=top;spacingLeft=4;spacingRight=4;overflow=hidden;rotatable=0;points=[[0,0.5],[1,0.5]];portConstraint=eastwest;" parent="_Fq-GKmT_b9NVkXiLpo_-22" vertex="1">
          <mxGeometry y="26" width="160" height="26" as="geometry" />
        </mxCell>
        <mxCell id="_Fq-GKmT_b9NVkXiLpo_-24" value="" style="line;strokeWidth=1;fillColor=none;align=left;verticalAlign=middle;spacingTop=-1;spacingLeft=3;spacingRight=3;rotatable=0;labelPosition=right;points=[];portConstraint=eastwest;strokeColor=inherit;" parent="_Fq-GKmT_b9NVkXiLpo_-22" vertex="1">
          <mxGeometry y="52" width="160" height="8" as="geometry" />
        </mxCell>
        <mxCell id="_Fq-GKmT_b9NVkXiLpo_-25" value="+verificar(Desafio) : Boolean;" style="text;strokeColor=none;fillColor=none;align=left;verticalAlign=top;spacingLeft=4;spacingRight=4;overflow=hidden;rotatable=0;points=[[0,0.5],[1,0.5]];portConstraint=eastwest;" parent="_Fq-GKmT_b9NVkXiLpo_-22" vertex="1">
          <mxGeometry y="60" width="160" height="26" as="geometry" />
        </mxCell>
        <mxCell id="_Fq-GKmT_b9NVkXiLpo_-26" value="" style="endArrow=block;dashed=1;endFill=0;endSize=12;html=1;rounded=0;exitX=0.667;exitY=-0.008;exitDx=0;exitDy=0;exitPerimeter=0;" parent="WIyWlLk6GJQsqaUBKTNV-1" source="brn7q9q9NZogk5MjZYks-25" edge="1">
          <mxGeometry width="160" relative="1" as="geometry">
            <mxPoint x="-70" y="1280" as="sourcePoint" />
            <mxPoint x="40" y="1250" as="targetPoint" />
            <Array as="points">
              <mxPoint x="-120" y="1320" />
              <mxPoint x="40" y="1320" />
            </Array>
          </mxGeometry>
        </mxCell>
        <mxCell id="_Fq-GKmT_b9NVkXiLpo_-27" value="" style="endArrow=open;endFill=1;endSize=12;html=1;rounded=0;" parent="WIyWlLk6GJQsqaUBKTNV-1" edge="1">
          <mxGeometry width="160" relative="1" as="geometry">
            <mxPoint x="90" y="1070" as="sourcePoint" />
            <mxPoint x="90" y="1160" as="targetPoint" />
          </mxGeometry>
        </mxCell>
        <mxCell id="_Fq-GKmT_b9NVkXiLpo_-28" value="RestriccionPorArea" style="swimlane;fontStyle=1;align=center;verticalAlign=top;childLayout=stackLayout;horizontal=1;startSize=26;horizontalStack=0;resizeParent=1;resizeParentMax=0;resizeLast=0;collapsible=1;marginBottom=0;" parent="WIyWlLk6GJQsqaUBKTNV-1" vertex="1">
          <mxGeometry x="380" y="1190" width="310" height="86" as="geometry" />
        </mxCell>
        <mxCell id="_Fq-GKmT_b9NVkXiLpo_-29" value="-" style="text;strokeColor=none;fillColor=none;align=left;verticalAlign=top;spacingLeft=4;spacingRight=4;overflow=hidden;rotatable=0;points=[[0,0.5],[1,0.5]];portConstraint=eastwest;" parent="_Fq-GKmT_b9NVkXiLpo_-28" vertex="1">
          <mxGeometry y="26" width="310" height="26" as="geometry" />
        </mxCell>
        <mxCell id="_Fq-GKmT_b9NVkXiLpo_-30" value="" style="line;strokeWidth=1;fillColor=none;align=left;verticalAlign=middle;spacingTop=-1;spacingLeft=3;spacingRight=3;rotatable=0;labelPosition=right;points=[];portConstraint=eastwest;strokeColor=inherit;" parent="_Fq-GKmT_b9NVkXiLpo_-28" vertex="1">
          <mxGeometry y="52" width="310" height="8" as="geometry" />
        </mxCell>
        <mxCell id="_Fq-GKmT_b9NVkXiLpo_-31" value="+ verificar(Desafio) : Boolean;" style="text;strokeColor=none;fillColor=none;align=left;verticalAlign=top;spacingLeft=4;spacingRight=4;overflow=hidden;rotatable=0;points=[[0,0.5],[1,0.5]];portConstraint=eastwest;" parent="_Fq-GKmT_b9NVkXiLpo_-28" vertex="1">
          <mxGeometry y="60" width="310" height="26" as="geometry" />
        </mxCell>
        <mxCell id="_Fq-GKmT_b9NVkXiLpo_-32" value="RestriccionSemana" style="swimlane;fontStyle=1;align=center;verticalAlign=top;childLayout=stackLayout;horizontal=1;startSize=30;horizontalStack=0;resizeParent=1;resizeParentMax=0;resizeLast=0;collapsible=1;marginBottom=0;" parent="WIyWlLk6GJQsqaUBKTNV-1" vertex="1">
          <mxGeometry x="10" y="1380" width="230" height="90" as="geometry" />
        </mxCell>
        <mxCell id="_Fq-GKmT_b9NVkXiLpo_-33" value="-" style="text;strokeColor=none;fillColor=none;align=left;verticalAlign=top;spacingLeft=4;spacingRight=4;overflow=hidden;rotatable=0;points=[[0,0.5],[1,0.5]];portConstraint=eastwest;" parent="_Fq-GKmT_b9NVkXiLpo_-32" vertex="1">
          <mxGeometry y="30" width="230" height="26" as="geometry" />
        </mxCell>
        <mxCell id="_Fq-GKmT_b9NVkXiLpo_-34" value="" style="line;strokeWidth=1;fillColor=none;align=left;verticalAlign=middle;spacingTop=-1;spacingLeft=3;spacingRight=3;rotatable=0;labelPosition=right;points=[];portConstraint=eastwest;strokeColor=inherit;" parent="_Fq-GKmT_b9NVkXiLpo_-32" vertex="1">
          <mxGeometry y="56" width="230" height="8" as="geometry" />
        </mxCell>
        <mxCell id="_Fq-GKmT_b9NVkXiLpo_-35" value="+ verificar(Desafio) : Boolean;" style="text;strokeColor=none;fillColor=none;align=left;verticalAlign=top;spacingLeft=4;spacingRight=4;overflow=hidden;rotatable=0;points=[[0,0.5],[1,0.5]];portConstraint=eastwest;" parent="_Fq-GKmT_b9NVkXiLpo_-32" vertex="1">
          <mxGeometry y="64" width="230" height="26" as="geometry" />
        </mxCell>
        <mxCell id="_Fq-GKmT_b9NVkXiLpo_-36" value="" style="endArrow=block;dashed=1;endFill=0;endSize=12;html=1;rounded=0;exitX=0.25;exitY=0;exitDx=0;exitDy=0;" parent="WIyWlLk6GJQsqaUBKTNV-1" source="_Fq-GKmT_b9NVkXiLpo_-32" edge="1">
          <mxGeometry width="160" relative="1" as="geometry">
            <mxPoint x="20" y="1320" as="sourcePoint" />
            <mxPoint x="68" y="1250" as="targetPoint" />
          </mxGeometry>
        </mxCell>
        <mxCell id="_Fq-GKmT_b9NVkXiLpo_-37" value="RestriccionFinDeSemana" style="swimlane;fontStyle=1;align=center;verticalAlign=top;childLayout=stackLayout;horizontal=1;startSize=26;horizontalStack=0;resizeParent=1;resizeParentMax=0;resizeLast=0;collapsible=1;marginBottom=0;" parent="WIyWlLk6GJQsqaUBKTNV-1" vertex="1">
          <mxGeometry x="265" y="1380" width="225" height="86" as="geometry" />
        </mxCell>
        <mxCell id="_Fq-GKmT_b9NVkXiLpo_-38" value="-" style="text;strokeColor=none;fillColor=none;align=left;verticalAlign=top;spacingLeft=4;spacingRight=4;overflow=hidden;rotatable=0;points=[[0,0.5],[1,0.5]];portConstraint=eastwest;" parent="_Fq-GKmT_b9NVkXiLpo_-37" vertex="1">
          <mxGeometry y="26" width="225" height="26" as="geometry" />
        </mxCell>
        <mxCell id="_Fq-GKmT_b9NVkXiLpo_-39" value="" style="line;strokeWidth=1;fillColor=none;align=left;verticalAlign=middle;spacingTop=-1;spacingLeft=3;spacingRight=3;rotatable=0;labelPosition=right;points=[];portConstraint=eastwest;strokeColor=inherit;" parent="_Fq-GKmT_b9NVkXiLpo_-37" vertex="1">
          <mxGeometry y="52" width="225" height="8" as="geometry" />
        </mxCell>
        <mxCell id="_Fq-GKmT_b9NVkXiLpo_-40" value="+ verificar(Desafio) : Boolean;" style="text;strokeColor=none;fillColor=none;align=left;verticalAlign=top;spacingLeft=4;spacingRight=4;overflow=hidden;rotatable=0;points=[[0,0.5],[1,0.5]];portConstraint=eastwest;" parent="_Fq-GKmT_b9NVkXiLpo_-37" vertex="1">
          <mxGeometry y="60" width="225" height="26" as="geometry" />
        </mxCell>
        <mxCell id="_Fq-GKmT_b9NVkXiLpo_-41" value="" style="endArrow=block;dashed=1;endFill=0;endSize=12;html=1;rounded=0;entryX=0.854;entryY=1.192;entryDx=0;entryDy=0;entryPerimeter=0;exitX=0.385;exitY=-0.016;exitDx=0;exitDy=0;exitPerimeter=0;" parent="WIyWlLk6GJQsqaUBKTNV-1" source="_Fq-GKmT_b9NVkXiLpo_-37" target="_Fq-GKmT_b9NVkXiLpo_-25" edge="1">
          <mxGeometry width="160" relative="1" as="geometry">
            <mxPoint x="100" y="1320" as="sourcePoint" />
            <mxPoint x="260" y="1320" as="targetPoint" />
            <Array as="points">
              <mxPoint x="350" y="1320" />
              <mxPoint x="152" y="1320" />
            </Array>
          </mxGeometry>
        </mxCell>
        <mxCell id="_Fq-GKmT_b9NVkXiLpo_-42" value="" style="endArrow=block;dashed=1;endFill=0;endSize=12;html=1;rounded=0;" parent="WIyWlLk6GJQsqaUBKTNV-1" edge="1">
          <mxGeometry width="160" relative="1" as="geometry">
            <mxPoint x="380" y="1210" as="sourcePoint" />
            <mxPoint x="180" y="1210" as="targetPoint" />
          </mxGeometry>
        </mxCell>
        <mxCell id="_Fq-GKmT_b9NVkXiLpo_-45" value="" style="endArrow=open;endFill=1;endSize=12;html=1;rounded=0;" parent="WIyWlLk6GJQsqaUBKTNV-1" edge="1">
          <mxGeometry width="160" relative="1" as="geometry">
            <mxPoint x="480" y="1180" as="sourcePoint" />
            <mxPoint x="480" y="980" as="targetPoint" />
          </mxGeometry>
        </mxCell>
        <mxCell id="p6YSRKwi16wKpxuKR68C-1" value="" style="endArrow=open;endFill=1;endSize=12;html=1;rounded=0;exitX=1.017;exitY=0.841;exitDx=0;exitDy=0;exitPerimeter=0;entryX=0.25;entryY=0;entryDx=0;entryDy=0;" edge="1" parent="WIyWlLk6GJQsqaUBKTNV-1" source="C-iBWe6EF-HlVLcRRVlP-50" target="C-iBWe6EF-HlVLcRRVlP-60">
          <mxGeometry width="160" relative="1" as="geometry">
            <mxPoint x="-120" y="560" as="sourcePoint" />
            <mxPoint x="40" y="560" as="targetPoint" />
            <Array as="points">
              <mxPoint x="53" y="285" />
            </Array>
          </mxGeometry>
        </mxCell>
        <mxCell id="p6YSRKwi16wKpxuKR68C-2" value="1" style="text;html=1;align=center;verticalAlign=middle;resizable=0;points=[];autosize=1;strokeColor=none;fillColor=none;" vertex="1" parent="WIyWlLk6GJQsqaUBKTNV-1">
          <mxGeometry x="-230" y="280" width="30" height="30" as="geometry" />
        </mxCell>
        <mxCell id="p6YSRKwi16wKpxuKR68C-3" value="*" style="text;html=1;align=center;verticalAlign=middle;resizable=0;points=[];autosize=1;strokeColor=none;fillColor=none;" vertex="1" parent="WIyWlLk6GJQsqaUBKTNV-1">
          <mxGeometry x="55" y="835" width="30" height="30" as="geometry" />
        </mxCell>
        <mxCell id="p6YSRKwi16wKpxuKR68C-4" value="desafiosDisponibles" style="text;html=1;align=center;verticalAlign=middle;resizable=0;points=[];autosize=1;strokeColor=none;fillColor=none;" vertex="1" parent="WIyWlLk6GJQsqaUBKTNV-1">
          <mxGeometry x="-235" y="265" width="130" height="30" as="geometry" />
        </mxCell>
      </root>
    </mxGraphModel>
  </diagram>
</mxfile>
